<svg xmlns="http://www.w3.org/2000/svg" xmlns:xlink="http://www.w3.org/1999/xlink" width="400" zoomAndPan="magnify" viewBox="0 0 300 74.999997" height="100" preserveAspectRatio="xMidYMid meet" version="1.0"><defs><g/><clipPath id="169e634a1d"><path d="M 39.441406 6.84375 L 97.941406 6.84375 L 97.941406 68.34375 L 39.441406 68.34375 Z M 39.441406 6.84375 " clip-rule="nonzero"/></clipPath></defs><g clip-path="url(#169e634a1d)"><path fill="#dc2626" d="M 68.714844 6.875 L 39.519531 17.582031 L 39.519531 56.550781 L 68.714844 68.226562 L 97.910156 56.550781 L 97.910156 17.582031 L 97.292969 17.355469 Z M 68.714844 8.882812 L 96.027344 18.898438 L 96.027344 55.273438 L 68.714844 66.199219 L 41.402344 55.273438 L 41.402344 18.898438 Z M 68.714844 9.761719 C 68.453125 9.761719 68.230469 9.855469 68.046875 10.039062 C 67.863281 10.222656 67.773438 10.445312 67.773438 10.703125 C 67.773438 10.964844 67.863281 11.1875 68.046875 11.371094 C 68.230469 11.554688 68.453125 11.648438 68.714844 11.648438 C 68.972656 11.648438 69.195312 11.554688 69.378906 11.371094 C 69.5625 11.1875 69.65625 10.964844 69.65625 10.703125 C 69.65625 10.445312 69.5625 10.222656 69.378906 10.039062 C 69.195312 9.855469 68.972656 9.761719 68.714844 9.761719 Z M 68.714844 13.53125 C 68.453125 13.53125 68.230469 13.621094 68.046875 13.804688 C 67.863281 13.988281 67.773438 14.210938 67.773438 14.472656 C 67.773438 14.730469 67.863281 14.953125 68.046875 15.136719 C 68.230469 15.320312 68.453125 15.414062 68.714844 15.414062 C 68.972656 15.414062 69.195312 15.320312 69.378906 15.136719 C 69.5625 14.953125 69.65625 14.730469 69.65625 14.472656 C 69.65625 14.210938 69.5625 13.988281 69.378906 13.804688 C 69.195312 13.621094 68.972656 13.53125 68.714844 13.53125 Z M 68.714844 17.296875 C 68.453125 17.296875 68.230469 17.390625 68.046875 17.574219 C 67.863281 17.757812 67.773438 17.980469 67.773438 18.238281 C 67.773438 18.5 67.863281 18.722656 68.046875 18.90625 C 68.230469 19.089844 68.453125 19.179688 68.714844 19.179688 C 68.972656 19.179688 69.195312 19.089844 69.378906 18.90625 C 69.5625 18.722656 69.65625 18.5 69.65625 18.238281 C 69.65625 17.980469 69.5625 17.757812 69.378906 17.574219 C 69.195312 17.390625 68.972656 17.296875 68.714844 17.296875 Z M 68.714844 21.066406 C 68.453125 21.066406 68.230469 21.15625 68.046875 21.339844 C 67.863281 21.523438 67.773438 21.746094 67.773438 22.007812 C 67.773438 22.265625 67.863281 22.488281 68.046875 22.671875 C 68.230469 22.855469 68.453125 22.949219 68.714844 22.949219 C 68.972656 22.949219 69.195312 22.855469 69.378906 22.671875 C 69.5625 22.488281 69.65625 22.265625 69.65625 22.007812 C 69.65625 21.746094 69.5625 21.523438 69.378906 21.339844 C 69.195312 21.15625 68.972656 21.066406 68.714844 21.066406 Z M 62.121094 22.730469 L 47.050781 28.644531 L 47.050781 41.46875 L 48.351562 40.933594 L 62.121094 35.265625 Z M 77.191406 24.417969 L 77.191406 49.015625 L 79.121094 49.785156 L 79.207031 49.820312 L 82.707031 51.222656 L 82.746094 51.238281 L 82.792969 51.257812 L 86.289062 52.65625 L 86.382812 52.691406 L 88.492188 53.535156 L 88.492188 28.628906 Z M 68.714844 24.832031 C 68.453125 24.832031 68.230469 24.925781 68.046875 25.109375 C 67.863281 25.292969 67.773438 25.515625 67.773438 25.773438 C 67.773438 26.035156 67.863281 26.257812 68.046875 26.441406 C 68.230469 26.625 68.453125 26.714844 68.714844 26.714844 C 68.972656 26.714844 69.195312 26.625 69.378906 26.441406 C 69.5625 26.257812 69.65625 26.035156 69.65625 25.773438 C 69.65625 25.515625 69.5625 25.292969 69.378906 25.109375 C 69.195312 24.925781 68.972656 24.832031 68.714844 24.832031 Z M 60.238281 25.492188 L 60.238281 34.003906 L 48.9375 38.65625 L 48.9375 29.925781 Z M 79.074219 27.132812 L 86.609375 29.9375 L 86.609375 50.753906 L 83.496094 49.507812 L 83.492188 49.507812 L 83.40625 49.472656 L 79.828125 48.039062 L 79.820312 48.039062 L 79.074219 47.738281 Z M 68.714844 28.597656 C 68.453125 28.597656 68.230469 28.691406 68.046875 28.875 C 67.863281 29.058594 67.773438 29.28125 67.773438 29.542969 C 67.773438 29.800781 67.863281 30.023438 68.046875 30.207031 C 68.230469 30.390625 68.453125 30.484375 68.714844 30.484375 C 68.972656 30.484375 69.195312 30.390625 69.378906 30.207031 C 69.5625 30.023438 69.65625 29.800781 69.65625 29.542969 C 69.65625 29.28125 69.5625 29.058594 69.378906 28.875 C 69.195312 28.691406 68.972656 28.597656 68.714844 28.597656 Z M 68.714844 32.367188 C 68.453125 32.367188 68.230469 32.457031 68.046875 32.640625 C 67.863281 32.828125 67.773438 33.046875 67.773438 33.308594 C 67.773438 33.570312 67.863281 33.789062 68.046875 33.972656 C 68.230469 34.160156 68.453125 34.25 68.714844 34.25 C 68.972656 34.25 69.195312 34.160156 69.378906 33.972656 C 69.5625 33.789062 69.65625 33.570312 69.65625 33.308594 C 69.65625 33.046875 69.5625 32.828125 69.378906 32.640625 C 69.195312 32.457031 68.972656 32.367188 68.714844 32.367188 Z M 68.714844 36.132812 C 68.453125 36.132812 68.230469 36.226562 68.046875 36.410156 C 67.863281 36.59375 67.773438 36.816406 67.773438 37.074219 C 67.773438 37.335938 67.863281 37.558594 68.046875 37.742188 C 68.230469 37.925781 68.453125 38.019531 68.714844 38.019531 C 68.972656 38.019531 69.195312 37.925781 69.378906 37.742188 C 69.5625 37.558594 69.65625 37.335938 69.65625 37.074219 C 69.65625 36.816406 69.5625 36.59375 69.378906 36.410156 C 69.195312 36.226562 68.972656 36.132812 68.714844 36.132812 Z M 68.714844 39.902344 C 68.453125 39.902344 68.230469 39.992188 68.046875 40.175781 C 67.863281 40.359375 67.773438 40.582031 67.773438 40.84375 C 67.773438 41.101562 67.863281 41.324219 68.046875 41.507812 C 68.230469 41.691406 68.453125 41.785156 68.714844 41.785156 C 68.972656 41.785156 69.195312 41.691406 69.378906 41.507812 C 69.5625 41.324219 69.65625 41.101562 69.65625 40.84375 C 69.65625 40.582031 69.5625 40.359375 69.378906 40.175781 C 69.195312 39.992188 68.972656 39.902344 68.714844 39.902344 Z M 68.691406 43.667969 L 68.363281 43.738281 L 68.277344 43.773438 L 68.246094 43.804688 L 68.222656 43.804688 L 68.171875 43.890625 L 67.71875 44.402344 L 67.886719 45.226562 L 68.15625 45.355469 L 68.363281 45.484375 L 68.453125 45.519531 L 68.5 45.515625 L 68.652344 45.585938 L 68.976562 45.519531 L 69.0625 45.484375 L 69.078125 45.46875 L 69.292969 45.449219 L 69.738281 44.734375 L 69.433594 43.945312 L 69.152344 43.773438 L 69.0625 43.738281 L 68.867188 43.753906 Z M 65.105469 45.101562 L 64.78125 45.167969 L 64.691406 45.203125 L 64.132812 45.835938 L 64.300781 46.664062 L 65.066406 47.019531 L 65.390625 46.953125 L 65.480469 46.917969 L 66.039062 46.289062 L 65.867188 45.460938 Z M 72.648438 45.167969 L 71.808594 45.242188 L 71.363281 45.957031 L 71.667969 46.746094 L 71.949219 46.917969 L 72.035156 46.953125 L 72.878906 46.882812 L 73.324219 46.167969 L 73.019531 45.382812 L 72.738281 45.203125 Z M 61.519531 46.535156 L 61.195312 46.605469 L 61.105469 46.640625 L 60.546875 47.269531 L 60.714844 48.097656 L 61.480469 48.453125 L 61.804688 48.390625 L 61.894531 48.355469 L 62.453125 47.722656 L 62.285156 46.894531 Z M 76.234375 46.605469 L 75.394531 46.675781 L 74.945312 47.390625 L 75.253906 48.175781 L 75.535156 48.355469 L 75.625 48.390625 L 76.464844 48.316406 L 76.910156 47.601562 L 76.605469 46.8125 L 76.324219 46.640625 Z M 57.933594 47.972656 L 57.609375 48.039062 L 57.519531 48.074219 L 56.960938 48.703125 L 57.132812 49.53125 L 57.894531 49.890625 L 58.21875 49.820312 L 58.308594 49.785156 L 58.867188 49.15625 L 58.699219 48.328125 Z M 54.347656 49.40625 L 54.023438 49.472656 L 53.9375 49.507812 L 53.375 50.136719 L 53.546875 50.964844 L 54.3125 51.324219 L 54.636719 51.257812 L 54.722656 51.222656 L 55.28125 50.589844 L 55.113281 49.761719 Z M 50.761719 50.839844 L 50.4375 50.90625 L 50.351562 50.941406 L 49.792969 51.574219 L 49.960938 52.398438 L 50.726562 52.757812 L 51.050781 52.691406 L 51.136719 52.65625 L 51.699219 52.023438 L 51.527344 51.199219 Z M 47.175781 52.273438 L 46.851562 52.339844 L 46.765625 52.375 L 46.203125 53.007812 L 46.375 53.832031 L 47.140625 54.191406 L 47.464844 54.125 L 47.554688 54.089844 L 48.113281 53.457031 L 47.941406 52.632812 Z M 90.578125 52.339844 L 89.734375 52.410156 L 89.289062 53.128906 L 89.59375 53.914062 L 89.875 54.089844 L 89.964844 54.125 L 90.804688 54.054688 L 91.25 53.335938 L 90.945312 52.550781 L 90.664062 52.375 Z M 43.59375 53.707031 L 43.265625 53.773438 L 43.179688 53.808594 L 42.621094 54.441406 L 42.789062 55.265625 L 43.554688 55.625 L 43.878906 55.558594 L 43.96875 55.523438 L 44.527344 54.894531 L 44.359375 54.066406 Z M 94.160156 53.773438 L 93.320312 53.84375 L 92.875 54.5625 L 93.179688 55.347656 L 93.460938 55.523438 L 93.550781 55.558594 L 94.390625 55.488281 L 94.835938 54.773438 L 94.53125 53.984375 L 94.25 53.808594 Z M 94.160156 53.773438 " fill-opacity="1" fill-rule="nonzero"/></g><g fill="#000000" fill-opacity="1"><g transform="translate(115.406415, 59.999994)"><g><path d="M 17.859375 -41.90625 L 32.59375 -33.375 L 32.59375 -16.296875 L 25.25 -12.328125 L 32.59375 -7.75 L 32.59375 0.78125 L 10.40625 -12.328125 L 10.40625 0.78125 L 3 -3.78125 L 3 -33.375 Z M 17.859375 -33.375 L 10.40625 -29.40625 L 10.40625 -20.859375 L 17.859375 -16.296875 L 25.25 -20.859375 L 25.25 -29.40625 Z M 17.859375 -33.375 "/></g></g></g><g fill="#000000" fill-opacity="1"><g transform="translate(150.995821, 59.999994)"><g><path d="M 17.796875 -42.203125 L 32.59375 -33.671875 L 32.59375 -8.0625 L 17.796875 0.484375 L 3 -8.0625 L 3 -33.671875 Z M 25.1875 -29.703125 L 17.796875 -33.671875 L 10.40625 -29.703125 L 10.40625 -12.625 L 17.796875 -8.0625 L 25.1875 -12.625 Z M 25.1875 -29.703125 "/></g></g></g><g fill="#000000" fill-opacity="1"><g transform="translate(186.585227, 59.999994)"><g><path d="M 3.0625 -18.765625 C 5.832031 -20.359375 8.007812 -21.617188 9.59375 -22.546875 C 11.175781 -23.472656 12.382812 -24.175781 13.21875 -24.65625 C 14.0625 -25.132812 14.710938 -25.484375 15.171875 -25.703125 C 15.640625 -25.921875 16.09375 -26.148438 16.53125 -26.390625 C 16.976562 -26.628906 17.617188 -26.96875 18.453125 -27.40625 C 19.296875 -27.851562 20.519531 -28.519531 22.125 -29.40625 L 22.125 -20.625 C 19.28125 -19.0625 17.054688 -17.835938 15.453125 -16.953125 C 13.847656 -16.066406 12.65625 -15.40625 11.875 -14.96875 C 11.09375 -14.53125 10.488281 -14.191406 10.0625 -13.953125 C 9.644531 -13.710938 9.222656 -13.460938 8.796875 -13.203125 C 8.378906 -12.941406 7.75 -12.554688 6.90625 -12.046875 C 6.070312 -11.546875 4.789062 -10.816406 3.0625 -9.859375 Z M 3.0625 -18.765625 "/></g></g></g><g fill="#000000" fill-opacity="1"><g transform="translate(211.113061, 59.999994)"><g><path d="M 22 -37.765625 L 22 -8.171875 L 7.21875 0.359375 L -0.1875 -3.609375 L -0.1875 -12.140625 L 7.21875 -8.171875 L 14.671875 -12.140625 L 14.671875 -42.265625 Z M 22 -37.765625 "/></g></g></g><g fill="#000000" fill-opacity="1"><g transform="translate(236.001601, 59.999994)"><g><path d="M 2.953125 -3.609375 L 2.953125 -33.796875 L 17.734375 -42.265625 L 32.53125 -33.796875 L 32.53125 -3.609375 L 25.125 0.359375 L 25.125 -12.140625 L 17.734375 -8.171875 L 10.34375 -12.140625 L 10.34375 0.359375 Z M 25.125 -20.6875 L 25.125 -29.21875 L 17.734375 -33.796875 L 10.34375 -29.21875 L 10.34375 -20.6875 L 17.734375 -16.71875 Z M 25.125 -20.6875 "/></g></g></g></svg>