<svg xmlns="http://www.w3.org/2000/svg" xmlns:xlink="http://www.w3.org/1999/xlink" width="400" zoomAndPan="magnify" viewBox="0 0 300 74.999997" height="100" preserveAspectRatio="xMidYMid meet" version="1.0"><defs><filter x="0%" y="0%" width="100%" height="100%" id="8f13a956d6"><feColorMatrix values="0 0 0 0 1 0 0 0 0 1 0 0 0 0 1 0 0 0 1 0" color-interpolation-filters="sRGB"/></filter><g/><mask id="1cbf13aa96"><g filter="url(#8f13a956d6)"><rect x="-30" width="360" fill="#000000" y="-7.5" height="89.999996" fill-opacity="0.51"/></g></mask><clipPath id="468eb8bcbb"><path d="M 0.441406 1.84375 L 58.921875 1.84375 L 58.921875 63.34375 L 0.441406 63.34375 Z M 0.441406 1.84375 " clip-rule="nonzero"/></clipPath><clipPath id="ac03416693"><rect x="0" width="59" y="0" height="65"/></clipPath><mask id="d51c2c4d6d"><g filter="url(#8f13a956d6)"><rect x="-30" width="360" fill="#000000" y="-7.5" height="89.999996" fill-opacity="0.51"/></g></mask><clipPath id="47faa78061"><rect x="0" width="158" y="0" height="68"/></clipPath></defs><rect x="-30" width="360" fill="#ffffff" y="-7.5" height="89.999996" fill-opacity="1"/><rect x="-30" width="360" fill="#ffffff" y="-7.5" height="89.999996" fill-opacity="1"/><g mask="url(#1cbf13aa96)"><g transform="matrix(1, 0, 0, 1, 39, 5)"><g clip-path="url(#ac03416693)"><g clip-path="url(#468eb8bcbb)"><path fill="#344e41" d="M 29.714844 1.875 L 0.519531 12.582031 L 0.519531 51.550781 L 29.714844 63.226562 L 58.910156 51.550781 L 58.910156 12.582031 L 58.292969 12.355469 Z M 29.714844 3.882812 L 57.027344 13.898438 L 57.027344 50.273438 L 29.714844 61.199219 L 2.402344 50.273438 L 2.402344 13.898438 Z M 29.714844 4.761719 C 29.453125 4.761719 29.230469 4.855469 29.046875 5.039062 C 28.863281 5.222656 28.773438 5.445312 28.773438 5.703125 C 28.773438 5.964844 28.863281 6.1875 29.046875 6.371094 C 29.230469 6.554688 29.453125 6.648438 29.714844 6.648438 C 29.972656 6.648438 30.195312 6.554688 30.378906 6.371094 C 30.5625 6.1875 30.65625 5.964844 30.65625 5.703125 C 30.65625 5.445312 30.5625 5.222656 30.378906 5.039062 C 30.195312 4.855469 29.972656 4.761719 29.714844 4.761719 Z M 29.714844 8.53125 C 29.453125 8.53125 29.230469 8.621094 29.046875 8.804688 C 28.863281 8.988281 28.773438 9.210938 28.773438 9.472656 C 28.773438 9.730469 28.863281 9.953125 29.046875 10.136719 C 29.230469 10.320312 29.453125 10.414062 29.714844 10.414062 C 29.972656 10.414062 30.195312 10.320312 30.378906 10.136719 C 30.5625 9.953125 30.65625 9.730469 30.65625 9.472656 C 30.65625 9.210938 30.5625 8.988281 30.378906 8.804688 C 30.195312 8.621094 29.972656 8.53125 29.714844 8.53125 Z M 29.714844 12.296875 C 29.453125 12.296875 29.230469 12.390625 29.046875 12.574219 C 28.863281 12.757812 28.773438 12.980469 28.773438 13.238281 C 28.773438 13.5 28.863281 13.722656 29.046875 13.90625 C 29.230469 14.089844 29.453125 14.179688 29.714844 14.179688 C 29.972656 14.179688 30.195312 14.089844 30.378906 13.90625 C 30.5625 13.722656 30.65625 13.5 30.65625 13.238281 C 30.65625 12.980469 30.5625 12.757812 30.378906 12.574219 C 30.195312 12.390625 29.972656 12.296875 29.714844 12.296875 Z M 29.714844 16.066406 C 29.453125 16.066406 29.230469 16.15625 29.046875 16.339844 C 28.863281 16.523438 28.773438 16.746094 28.773438 17.007812 C 28.773438 17.265625 28.863281 17.488281 29.046875 17.671875 C 29.230469 17.855469 29.453125 17.949219 29.714844 17.949219 C 29.972656 17.949219 30.195312 17.855469 30.378906 17.671875 C 30.5625 17.488281 30.65625 17.265625 30.65625 17.007812 C 30.65625 16.746094 30.5625 16.523438 30.378906 16.339844 C 30.195312 16.15625 29.972656 16.066406 29.714844 16.066406 Z M 23.121094 17.730469 L 8.050781 23.644531 L 8.050781 36.46875 L 9.351562 35.933594 L 23.121094 30.265625 Z M 38.191406 19.417969 L 38.191406 44.015625 L 40.121094 44.785156 L 40.207031 44.820312 L 43.707031 46.222656 L 43.746094 46.238281 L 43.792969 46.257812 L 47.289062 47.65625 L 47.382812 47.691406 L 49.492188 48.535156 L 49.492188 23.628906 Z M 29.714844 19.832031 C 29.453125 19.832031 29.230469 19.925781 29.046875 20.109375 C 28.863281 20.292969 28.773438 20.515625 28.773438 20.773438 C 28.773438 21.035156 28.863281 21.257812 29.046875 21.441406 C 29.230469 21.625 29.453125 21.714844 29.714844 21.714844 C 29.972656 21.714844 30.195312 21.625 30.378906 21.441406 C 30.5625 21.257812 30.65625 21.035156 30.65625 20.773438 C 30.65625 20.515625 30.5625 20.292969 30.378906 20.109375 C 30.195312 19.925781 29.972656 19.832031 29.714844 19.832031 Z M 21.238281 20.492188 L 21.238281 29.003906 L 9.9375 33.65625 L 9.9375 24.925781 Z M 40.074219 22.132812 L 47.609375 24.9375 L 47.609375 45.753906 L 44.496094 44.507812 L 44.492188 44.507812 L 44.40625 44.472656 L 40.828125 43.039062 L 40.820312 43.039062 L 40.074219 42.738281 Z M 29.714844 23.597656 C 29.453125 23.597656 29.230469 23.691406 29.046875 23.875 C 28.863281 24.058594 28.773438 24.28125 28.773438 24.542969 C 28.773438 24.800781 28.863281 25.023438 29.046875 25.207031 C 29.230469 25.390625 29.453125 25.484375 29.714844 25.484375 C 29.972656 25.484375 30.195312 25.390625 30.378906 25.207031 C 30.5625 25.023438 30.65625 24.800781 30.65625 24.542969 C 30.65625 24.28125 30.5625 24.058594 30.378906 23.875 C 30.195312 23.691406 29.972656 23.597656 29.714844 23.597656 Z M 29.714844 27.367188 C 29.453125 27.367188 29.230469 27.457031 29.046875 27.640625 C 28.863281 27.828125 28.773438 28.046875 28.773438 28.308594 C 28.773438 28.570312 28.863281 28.789062 29.046875 28.972656 C 29.230469 29.160156 29.453125 29.25 29.714844 29.25 C 29.972656 29.25 30.195312 29.160156 30.378906 28.972656 C 30.5625 28.789062 30.65625 28.570312 30.65625 28.308594 C 30.65625 28.046875 30.5625 27.828125 30.378906 27.640625 C 30.195312 27.457031 29.972656 27.367188 29.714844 27.367188 Z M 29.714844 31.132812 C 29.453125 31.132812 29.230469 31.226562 29.046875 31.410156 C 28.863281 31.59375 28.773438 31.816406 28.773438 32.074219 C 28.773438 32.335938 28.863281 32.558594 29.046875 32.742188 C 29.230469 32.925781 29.453125 33.019531 29.714844 33.019531 C 29.972656 33.019531 30.195312 32.925781 30.378906 32.742188 C 30.5625 32.558594 30.65625 32.335938 30.65625 32.074219 C 30.65625 31.816406 30.5625 31.59375 30.378906 31.410156 C 30.195312 31.226562 29.972656 31.132812 29.714844 31.132812 Z M 29.714844 34.902344 C 29.453125 34.902344 29.230469 34.992188 29.046875 35.175781 C 28.863281 35.359375 28.773438 35.582031 28.773438 35.84375 C 28.773438 36.101562 28.863281 36.324219 29.046875 36.507812 C 29.230469 36.691406 29.453125 36.785156 29.714844 36.785156 C 29.972656 36.785156 30.195312 36.691406 30.378906 36.507812 C 30.5625 36.324219 30.65625 36.101562 30.65625 35.84375 C 30.65625 35.582031 30.5625 35.359375 30.378906 35.175781 C 30.195312 34.992188 29.972656 34.902344 29.714844 34.902344 Z M 29.691406 38.667969 L 29.363281 38.738281 L 29.277344 38.773438 L 29.246094 38.804688 L 29.222656 38.804688 L 29.171875 38.890625 L 28.71875 39.402344 L 28.886719 40.226562 L 29.15625 40.355469 L 29.363281 40.484375 L 29.453125 40.519531 L 29.5 40.515625 L 29.652344 40.585938 L 29.976562 40.519531 L 30.0625 40.484375 L 30.078125 40.46875 L 30.292969 40.449219 L 30.738281 39.734375 L 30.433594 38.945312 L 30.152344 38.773438 L 30.0625 38.738281 L 29.867188 38.753906 Z M 26.105469 40.101562 L 25.78125 40.167969 L 25.691406 40.203125 L 25.132812 40.835938 L 25.300781 41.664062 L 26.066406 42.019531 L 26.390625 41.953125 L 26.480469 41.917969 L 27.039062 41.289062 L 26.867188 40.460938 Z M 33.648438 40.167969 L 32.808594 40.242188 L 32.363281 40.957031 L 32.667969 41.746094 L 32.949219 41.917969 L 33.035156 41.953125 L 33.878906 41.882812 L 34.324219 41.167969 L 34.019531 40.382812 L 33.738281 40.203125 Z M 22.519531 41.535156 L 22.195312 41.605469 L 22.105469 41.640625 L 21.546875 42.269531 L 21.714844 43.097656 L 22.480469 43.453125 L 22.804688 43.390625 L 22.894531 43.355469 L 23.453125 42.722656 L 23.285156 41.894531 Z M 37.234375 41.605469 L 36.394531 41.675781 L 35.945312 42.390625 L 36.253906 43.175781 L 36.535156 43.355469 L 36.625 43.390625 L 37.464844 43.316406 L 37.910156 42.601562 L 37.605469 41.8125 L 37.324219 41.640625 Z M 18.933594 42.972656 L 18.609375 43.039062 L 18.519531 43.074219 L 17.960938 43.703125 L 18.132812 44.53125 L 18.894531 44.890625 L 19.21875 44.820312 L 19.308594 44.785156 L 19.867188 44.15625 L 19.699219 43.328125 Z M 15.347656 44.40625 L 15.023438 44.472656 L 14.9375 44.507812 L 14.375 45.136719 L 14.546875 45.964844 L 15.3125 46.324219 L 15.636719 46.257812 L 15.722656 46.222656 L 16.28125 45.589844 L 16.113281 44.761719 Z M 11.761719 45.839844 L 11.4375 45.90625 L 11.351562 45.941406 L 10.792969 46.574219 L 10.960938 47.398438 L 11.726562 47.757812 L 12.050781 47.691406 L 12.136719 47.65625 L 12.699219 47.023438 L 12.527344 46.199219 Z M 8.175781 47.273438 L 7.851562 47.339844 L 7.765625 47.375 L 7.203125 48.007812 L 7.375 48.832031 L 8.140625 49.191406 L 8.464844 49.125 L 8.554688 49.089844 L 9.113281 48.457031 L 8.941406 47.632812 Z M 51.578125 47.339844 L 50.734375 47.410156 L 50.289062 48.128906 L 50.59375 48.914062 L 50.875 49.089844 L 50.964844 49.125 L 51.804688 49.054688 L 52.25 48.335938 L 51.945312 47.550781 L 51.664062 47.375 Z M 4.59375 48.707031 L 4.265625 48.773438 L 4.179688 48.808594 L 3.621094 49.441406 L 3.789062 50.265625 L 4.554688 50.625 L 4.878906 50.558594 L 4.96875 50.523438 L 5.527344 49.894531 L 5.359375 49.066406 Z M 55.160156 48.773438 L 54.320312 48.84375 L 53.875 49.5625 L 54.179688 50.347656 L 54.460938 50.523438 L 54.550781 50.558594 L 55.390625 50.488281 L 55.835938 49.773438 L 55.53125 48.984375 L 55.25 48.808594 Z M 55.160156 48.773438 " fill-opacity="1" fill-rule="nonzero"/></g></g></g></g><g mask="url(#d51c2c4d6d)"><g transform="matrix(1, 0, 0, 1, 115, 5)"><g clip-path="url(#47faa78061)"><g fill="#344e41" fill-opacity="1"><g transform="translate(0.402907, 56.512654)"><g><path d="M 17.859375 -41.90625 L 32.59375 -33.375 L 32.59375 -16.296875 L 25.25 -12.328125 L 32.59375 -7.75 L 32.59375 0.78125 L 10.40625 -12.328125 L 10.40625 0.78125 L 3 -3.78125 L 3 -33.375 Z M 17.859375 -33.375 L 10.40625 -29.40625 L 10.40625 -20.859375 L 17.859375 -16.296875 L 25.25 -20.859375 L 25.25 -29.40625 Z M 17.859375 -33.375 "/></g></g></g><g fill="#344e41" fill-opacity="1"><g transform="translate(35.992313, 56.512654)"><g><path d="M 17.796875 -42.203125 L 32.59375 -33.671875 L 32.59375 -8.0625 L 17.796875 0.484375 L 3 -8.0625 L 3 -33.671875 Z M 25.1875 -29.703125 L 17.796875 -33.671875 L 10.40625 -29.703125 L 10.40625 -12.625 L 17.796875 -8.0625 L 25.1875 -12.625 Z M 25.1875 -29.703125 "/></g></g></g><g fill="#344e41" fill-opacity="1"><g transform="translate(71.581718, 56.512654)"><g><path d="M 3.0625 -18.765625 C 5.832031 -20.359375 8.007812 -21.617188 9.59375 -22.546875 C 11.175781 -23.472656 12.382812 -24.175781 13.21875 -24.65625 C 14.0625 -25.132812 14.710938 -25.484375 15.171875 -25.703125 C 15.640625 -25.921875 16.09375 -26.148438 16.53125 -26.390625 C 16.976562 -26.628906 17.617188 -26.96875 18.453125 -27.40625 C 19.296875 -27.851562 20.519531 -28.519531 22.125 -29.40625 L 22.125 -20.625 C 19.28125 -19.0625 17.054688 -17.835938 15.453125 -16.953125 C 13.847656 -16.066406 12.65625 -15.40625 11.875 -14.96875 C 11.09375 -14.53125 10.488281 -14.191406 10.0625 -13.953125 C 9.644531 -13.710938 9.222656 -13.460938 8.796875 -13.203125 C 8.378906 -12.941406 7.75 -12.554688 6.90625 -12.046875 C 6.070312 -11.546875 4.789062 -10.816406 3.0625 -9.859375 Z M 3.0625 -18.765625 "/></g></g></g><g fill="#344e41" fill-opacity="1"><g transform="translate(96.109552, 56.512654)"><g><path d="M 22 -37.765625 L 22 -8.171875 L 7.21875 0.359375 L -0.1875 -3.609375 L -0.1875 -12.140625 L 7.21875 -8.171875 L 14.671875 -12.140625 L 14.671875 -42.265625 Z M 22 -37.765625 "/></g></g></g><g fill="#344e41" fill-opacity="1"><g transform="translate(120.998092, 56.512654)"><g><path d="M 2.953125 -3.609375 L 2.953125 -33.796875 L 17.734375 -42.265625 L 32.53125 -33.796875 L 32.53125 -3.609375 L 25.125 0.359375 L 25.125 -12.140625 L 17.734375 -8.171875 L 10.34375 -12.140625 L 10.34375 0.359375 Z M 25.125 -20.6875 L 25.125 -29.21875 L 17.734375 -33.796875 L 10.34375 -29.21875 L 10.34375 -20.6875 L 17.734375 -16.71875 Z M 25.125 -20.6875 "/></g></g></g></g></g></g></svg>